<!-- Generator: Adobe Illustrator 18.1.1, SVG Export Plug-In  -->
<svg version="1.1"
	 xmlns="http://www.w3.org/2000/svg" xmlns:xlink="http://www.w3.org/1999/xlink" xmlns:a="http://ns.adobe.com/AdobeSVGViewerExtensions/3.0/"
	 x="0px" y="0px" width="225.9px" height="280.3px" viewBox="0 0 225.9 280.3" enable-background="new 0 0 225.9 280.3"
	 xml:space="preserve">
<defs>
</defs>
<path fill="none" d="M118.2,200.4l17-48.1c0.4-1.3,0.2-2.7-0.7-3.7l-19-21.2c-1-1.1-2.7-0.4-2.7,1v72.1v6.2v0.2c0,1.7,2.4,2.2,3,0.5
	l0.3-0.8L118.2,200.4z"/>
<path fill="none" d="M25.1,118.3l48.3,17c1.3,0.4,2.7,0.2,3.7-0.7l21.2-19c1.1-1,0.4-2.7-1-2.7H25h-6.2h0c-1.7,0-2.2,2.4-0.5,3
	l0.6,0.2L25.1,118.3z"/>
<path fill="none" d="M110,98.3c1,1.1,2.7,0.4,2.7-1V25.1v-6.2v-0.1c0-1.7-2.4-2.2-3-0.5l-0.3,0.7l-2.2,6.3l-17,48.1
	c-0.4,1.3-0.2,2.7,0.7,3.7L110,98.3z"/>
<path fill="none" d="M152.5,90.4c-1.3-0.4-2.7-0.2-3.7,0.7l-21.2,19c-1.1,1-0.4,2.7,1,2.7h71.8h6.2h0.5c1.7,0,2.2-2.4,0.5-3l-1-0.4
	l-6.3-2.2L152.5,90.4z"/>
<path fill="#005C89" d="M84.5,78.4l25.5,28.4c1.5,1.6,4,1.6,5.5,0l25.5-28.4c0.9-1,1.2-2.4,0.7-3.7l-17.2-48.8l-2.3-6.5l-6-16.9
	c-1.1-3.3-5.8-3.3-6.9,0l-6,16.9l-2.3,6.5L83.8,74.7C83.3,76,83.6,77.4,84.5,78.4z M90.3,73.4l17-48.1l2.2-6.3l0.3-0.7
	c0.6-1.6,3-1.2,3,0.5v0.1v6.2v72.1c0,1.4-1.8,2.1-2.7,1L91,77.1C90.1,76.1,89.8,74.7,90.3,73.4z"/>
<path fill="#005C89" d="M116.2,223.3l6-17l2.3-6.5l17.2-48.8c0.4-1.3,0.2-2.7-0.7-3.7l-27-30.1c-0.6-0.7-1.7-0.7-2.3,0l-27,30.1
	c-0.9,1-1.2,2.4-0.7,3.7l17.2,48.8l2.3,6.5l6,17C110.4,226.6,115,226.6,116.2,223.3z M112.7,206.8v-6.2v-72.1c0-1.4,1.8-2.1,2.7-1
	l19,21.2c0.9,1,1.2,2.4,0.7,3.7l-17,48.1l-2.2,6.3l-0.3,0.8c-0.6,1.6-3,1.2-3-0.5V206.8z"/>
<path fill="#005C89" d="M7.8,125.9l-0.7-0.1c-2.4-0.5-4.5,1.5-4.2,3.9c2.7,17.6,9.5,33.9,19.5,47.7c0.9,1.3,2.9,1.8,4.3,1.1
	c2.4-1.2,2.7-3.8,1.5-5.6c-9.2-12.9-15.5-27.9-18-44.1C10,127.5,9.1,126.4,7.8,125.9z"/>
<path fill="#005C89" d="M50.1,197.9L50.1,197.9c-2.6,1-3.1,4.6-0.7,6.2c13.5,9.4,29.3,16,46.3,18.6c2.7,0.4,4.9-2.3,4-4.9l0,0
	c-0.5-1.3-1.6-2.2-2.9-2.4c-15.7-2.5-30.3-8.5-42.9-17.2C52.7,197.5,51.3,197.3,50.1,197.9z"/>
<path fill="#005C89" d="M175.4,197.9L175.4,197.9c-1.2-0.6-2.6-0.4-3.7,0.3c-12.9,9-28,15.1-44.2,17.4c-0.6,0.1-1.1,0.5-1.3,1.1
	l-0.3,1.1c-0.9,2.6,1.3,5.3,4,4.9c16.9-2.6,32.5-9.1,46-18.4C178.2,202.6,178,199.1,175.4,197.9z"/>
<path fill="#005C89" d="M7.4,99.9l0.3-0.1c1.3-0.4,2.2-1.5,2.4-2.8c2.5-16.2,8.8-31.2,17.9-44c0.8-1.1,0.9-2.5,0.3-3.7l0,0
	c-1.2-2.5-4.7-2.8-6.3-0.6C12.3,62.5,5.6,78.6,2.9,96C2.5,98.6,5,100.7,7.4,99.9z"/>
<path fill="#005C89" d="M215.2,96.8c0.2,1.2,1,2.3,2.2,2.8l0.4,0.1c2.5,1,5.1-1.2,4.7-3.8c-2.7-17.5-9.5-33.6-19.4-47.4
	c-1.5-2.1-4.7-1.9-6,0.4l-0.2,0.3c-0.6,1.2-0.5,2.6,0.3,3.7C206.4,65.6,212.7,80.6,215.2,96.8z"/>
<path fill="#005C89" d="M217.6,126.1l-1.3,0.5c-0.5,0.2-0.9,0.7-1,1.2c-2.4,16.7-8.8,32-18.2,45.2c-0.8,1.1-0.9,2.5-0.3,3.7
	c1.2,2.5,4.7,2.8,6.3,0.6c9.8-13.7,16.6-29.8,19.3-47.2C222.9,127.4,220.2,125.2,217.6,126.1z"/>
<path fill="#005C89" d="M125.9,8c0.5,1.3,1.6,2.2,2.9,2.4c15.9,2.5,30.6,8.6,43.3,17.4c1.1,0.8,2.5,0.9,3.7,0.3l0,0
	c2.5-1.2,2.8-4.7,0.6-6.3c-13.6-9.5-29.4-16.1-46.5-18.7C127.1,2.7,124.9,5.3,125.9,8L125.9,8z"/>
<path fill="#005C89" d="M49.3,28l0.3,0.2c1.2,0.6,2.5,0.5,3.6-0.3C66,19,80.7,12.8,96.7,10.4c1.3-0.2,2.5-1.1,2.9-2.4l0,0
	c0.9-2.6-1.3-5.3-4-4.9C78.4,5.8,62.6,12.4,48.9,22C46.7,23.5,47,26.8,49.3,28z"/>
<path fill="#005C89" d="M2.4,116.3l16.8,5.9l6.5,2.3l49,17.3c1.3,0.4,2.7,0.2,3.7-0.7l28.4-25.5c1.6-1.5,1.6-4,0-5.5L78.4,84.7
	c-1-0.9-2.4-1.2-3.7-0.7l-49,17.3l-6.5,2.3l-16.8,5.9C-0.8,110.6-0.8,115.2,2.4,116.3z M18.8,112.9H25h72.3c1.4,0,2.1,1.8,1,2.7
	l-21.2,19c-1,0.9-2.4,1.2-3.7,0.7l-48.3-17l-6.3-2.2l-0.6-0.2C16.6,115.3,17,112.9,18.8,112.9L18.8,112.9z"/>
<path fill="#005C89" d="M199.7,101l-48.5-17.1c-1.3-0.4-2.7-0.2-3.7,0.7l-28.4,25.5c-1.6,1.5-1.6,4,0,5.5l28.4,25.5
	c1,0.9,2.4,1.2,3.7,0.7l48.5-17.1l6.5-2.3l17.3-6.1c3.3-1.2,3.3-5.8,0-6.9l-17.3-6.1L199.7,101z M207.6,109.9c1.6,0.6,1.2,3-0.5,3
	h-0.5h-6.2h-71.8c-1.4,0-2.1-1.8-1-2.7l21.2-19c1-0.9,2.4-1.2,3.7-0.7l47.8,16.9l6.3,2.2L207.6,109.9z"/>
<path fill="#005C89" d="M39.2,54.5l3,6.3L52,81.2c0.8,1.7,2.8,2.5,4.6,1.9l17.9-6.5c1-0.4,1.8-1.2,2.2-2.2l7.2-19.8
	c0.3-0.8-0.1-1.6-0.8-1.9L61,42l-6.3-3l-20.4-9.8c-3.1-1.5-6.4,1.8-4.9,4.9L39.2,54.5z"/>
<path fill="#005C89" d="M164.4,42L144,51.8c-1.7,0.8-2.5,2.8-1.9,4.6l6.6,18c0.4,1,1.2,1.8,2.2,2.2l17.9,6.5
	c1.8,0.6,3.7-0.2,4.6-1.9l9.8-20.6l3-6.3l9.7-20.3c1.5-3.1-1.8-6.4-4.9-4.9L170.7,39L164.4,42z"/>
<path fill="#005C89" d="M76.7,151.8c-0.4-1-1.2-1.8-2.2-2.2l-19.7-7.2c-0.8-0.3-1.6,0.1-1.9,0.8l-10.5,22l-3,6.3L29.5,192
	c-1.5,3.1,1.8,6.4,4.9,4.9l20.7-9.9l6.3-3l20-9.6c1.7-0.8,2.5-2.8,1.9-4.6L76.7,151.8z"/>
<path fill="#005C89" d="M183.1,165.2l-9.7-20.3c-0.8-1.7-2.8-2.5-4.6-1.9l-17.9,6.5c-1,0.4-1.8,1.2-2.2,2.2l-6.6,18
	c-0.6,1.8,0.2,3.7,1.9,4.6l20,9.6l6.3,3l20.7,9.9c3.1,1.5,6.4-1.8,4.9-4.9l-9.8-20.5L183.1,165.2z"/>
<path fill="#2B2B2B" d="M3.9,278.9v-27.6c0-0.6,0.4-1,1-1h4.3c0.6,0,1,0.4,1,1v22.4c0,0.6,0.4,1,1,1h10c0.6,0,1,0.4,1,1v3.2
	c0,0.6-0.4,1-1,1H4.9C4.4,279.9,3.9,279.5,3.9,278.9z"/>
<path fill="#2B2B2B" d="M54.3,265.1c0,4.9-1.2,8.7-3.6,11.3c-2.4,2.6-5.9,4-10.5,4s-8-1.3-10.5-4C27.3,273.7,26,270,26,265
	c0-4.9,1.2-8.7,3.7-11.3c2.4-2.6,5.9-3.9,10.5-3.9c4.6,0,8,1.3,10.4,3.9C53.1,256.4,54.3,260.1,54.3,265.1z M32.6,265.1
	c0,3.3,0.6,5.8,1.9,7.5c1.3,1.7,3.1,2.5,5.6,2.5c5,0,7.5-3.3,7.5-10c0-6.7-2.5-10-7.5-10c-2.5,0-4.4,0.8-5.7,2.5
	C33.3,259.3,32.6,261.8,32.6,265.1z"/>
<path fill="#2B2B2B" d="M86,264.8c0,4.9-1.4,8.6-4.2,11.2c-2.8,2.6-6.8,3.9-12,3.9h-7.4c-0.6,0-1-0.4-1-1v-27.6c0-0.6,0.4-1,1-1h8.3
	c4.8,0,8.6,1.3,11.3,3.8C84.6,256.7,86,260.2,86,264.8z M79.5,265c0-6.4-2.8-9.5-8.4-9.5h-2.3c-0.6,0-1,0.4-1,1v17.3
	c0,0.6,0.4,1,1,1h1.7C76.4,274.7,79.5,271.5,79.5,265z"/>
<path fill="#2B2B2B" d="M108.2,279.9H93.1c-0.6,0-1-0.4-1-1v-27.6c0-0.6,0.4-1,1-1h15.1c0.6,0,1,0.4,1,1v3.1c0,0.6-0.4,1-1,1h-8.8
	c-0.6,0-1,0.4-1,1v4.5c0,0.6,0.4,1,1,1h8c0.6,0,1,0.4,1,1v3.1c0,0.6-0.4,1-1,1h-8c-0.6,0-1,0.4-1,1v5.6c0,0.6,0.4,1,1,1h8.8
	c0.6,0,1,0.4,1,1v3.2C109.2,279.5,108.7,279.9,108.2,279.9z"/>
<path fill="#2B2B2B" d="M152.8,279.9h-4.3c-0.6,0-1-0.4-1-1v-22.4c0-0.6-0.4-1-1-1h-6c-0.6,0-1-0.4-1-1v-3.2c0-0.6,0.4-1,1-1h20.4
	c0.6,0,1,0.4,1,1v3.2c0,0.6-0.4,1-1,1h-6c-0.6,0-1,0.4-1,1v22.4C153.8,279.5,153.4,279.9,152.8,279.9z"/>
<path fill="#2B2B2B" d="M203.6,269.5v9.4c0,0.6-0.4,1-1,1h-4.3c-0.6,0-1-0.4-1-1v-27.6c0-0.6,0.4-1,1-1h7.6c4,0,7,0.7,8.9,2.2
	c1.9,1.5,2.9,3.7,2.9,6.7c0,1.7-0.5,3.3-1.4,4.7c-0.8,1.1-1.8,2-3.1,2.7c-0.5,0.3-0.7,0.9-0.3,1.4c3.2,4.8,5.5,8.2,7,10.4
	c0.5,0.7,0,1.6-0.8,1.6h-4.5c-0.3,0-0.7-0.2-0.8-0.5l-6.5-10.4c-0.2-0.3-0.5-0.5-0.8-0.5h-1.8C204.1,268.5,203.6,269,203.6,269.5z
	 M203.6,262.4c0,0.6,0.4,1,1,1h1c2,0,3.5-0.3,4.4-1c0.9-0.7,1.4-1.7,1.4-3.1c0-1.4-0.5-2.4-1.4-3c-1-0.6-2.5-0.9-4.5-0.9h-0.9
	c-0.6,0-1,0.4-1,1V262.4z"/>
<path fill="#2B2B2B" d="M130.6,250.4c-1.4-0.4-2.9-0.5-4.4-0.5c-3.1,0-5.6,0.7-7.4,2.2s-2.7,3.6-2.7,6.2c0,1.4,0.3,2.6,0.8,3.6
	c0.5,1,1.3,2,2.2,2.7c0.9,0.8,2.3,1.6,4.1,2.5c1.9,0.9,3.2,1.6,3.8,2c0.6,0.4,1.1,0.9,1.4,1.3c0.3,0.5,0.5,1,0.5,1.6
	c0,1-0.4,1.8-1.1,2.4c-0.7,0.5-1.8,0.8-3.2,0.8c-1.1,0-2.4-0.2-3.8-0.5c-1.1-0.3-2.3-0.7-3.7-1.3c-0.7-0.3-1.4,0.2-1.4,0.9v3.7
	c0,0.4,0.2,0.8,0.6,0.9c2.3,1,4.9,1.5,7.8,1.5c3.4,0,6.1-0.8,8-2.3c1.9-1.5,2.9-3.6,2.9-6.3c0-1.9-0.5-3.6-1.5-4.9
	c-1-1.3-2.9-2.7-5.7-4c-2.1-1-3.4-1.7-4-2.1c-0.6-0.4-1-0.8-1.2-1.2c-0.3-0.4-0.4-0.9-0.4-1.4c0-0.9,0.3-1.6,1-2.2
	c0.6-0.6,1.5-0.8,2.7-0.8c1,0,2,0.1,3.1,0.4c0.4,0.1,0.8,0.2,1.3,0.4c0.7,0.2,1.3-0.3,1.3-0.9v-4.2
	C131.3,250.6,130.9,250.5,130.6,250.4z"/>
<path fill="#2B2B2B" d="M173.9,267.6c2.1-6.8,3.4-11.1,3.8-12.8c0.1,0.5,0.3,1.1,0.5,2c0.2,0.8,1.2,4,3,9.5c0.2,0.6-0.3,1.3-1,1.3
	h-3.5c-0.7,0-1.1,0.6-1,1.3l0.9,3.3c0.1,0.4,0.5,0.7,1,0.7h4.7c0.4,0,0.8,0.3,1,0.7l1.7,5.6c0.1,0.4,0.5,0.7,1,0.7h4.6
	c0.7,0,1.2-0.7,0.9-1.3l-9.8-27.8c-0.1-0.4-0.5-0.7-0.9-0.7h-6.3c-0.4,0-0.8,0.3-0.9,0.7l-9.8,27.8c-0.2,0.7,0.3,1.3,0.9,1.3h4.6
	c0.4,0,0.8-0.3,1-0.7l1.9-6.3"/>
</svg>